<svg xmlns="http://www.w3.org/2000/svg" width="376.664" height="288.294" viewBox="0 0 376.664 288.294">
  <g id="harkirat_kaur" data-name="harkirat kaur" transform="translate(-1635 156)">
    <g id="Group_1" data-name="Group 1" transform="translate(1309.248 -955.429)">
      <path id="Path_15" data-name="Path 15" d="M423.888,884.025a84.764,84.764,0,0,0-11.1.865c-37.808,5.469-60.7,35.13-63.656,39.085-4.853,6.485-24.129,33.883-19.6,71.851,5.559,46.62,42.373,70.317,47.255,73.342,4.062,2.517,35.116,21.124,72.969,13.267,20.995-4.358,36.125-15.207,45.167-21.69,12.38-8.875,20.822-17.973,29.665-27.5A320.432,320.432,0,0,0,550,1001.789c7.037-9.875,8.606-13.2,21.615-33.093,10.157-15.532,14.145-21.327,16.4-24.6,8.408-12.2,12.682-18.413,16.7-23.4a97.686,97.686,0,0,1,9.932-10.975,60.827,60.827,0,0,1,8.944-7.025,55.54,55.54,0,0,1,12.764-6.019c15.915-4.964,30.47.558,32.31,1.286a51.282,51.282,0,0,1,19.23,13.751,51.618,51.618,0,0,1,7.267,57.522c-1.062,2.049-9.616,18.024-26.832,23.981a55.06,55.06,0,0,1-12.522,2.572,62.7,62.7,0,0,1-20.348-1.342l.224-2.459a54.767,54.767,0,0,0,8.329,1.4c4.84.432,15.424,1.243,26.777-4.3a46.945,46.945,0,0,0,18.167-16.044,49.767,49.767,0,0,0,8.441-21.857,49.056,49.056,0,0,0-7.77-32.2,48.444,48.444,0,0,0-23.981-18.894c-12.734-4.495-26.862-3.272-37.174,2.4A61.6,61.6,0,0,0,618.46,909.7c-3.219,2.794-6.134,5.853-11.8,13.137-4.763,6.125-8.263,11.116-12.69,17.552-4.6,6.7-7.847,11.411-13.137,19.4-6.441,9.727-7.978,12.318-17.273,26.609-7.39,11.363-11.086,17.044-12.577,19.173a283.649,283.649,0,0,1-23.87,29.684,247.9,247.9,0,0,1-28.957,26.776,143.2,143.2,0,0,1-13.807,9.727,129.237,129.237,0,0,1-23.478,11.124c-26.535,8.953-53.012,2.867-55.621,2.236a106.22,106.22,0,0,1-75.913-73.677,104.131,104.131,0,0,1,26.72-100.565,105.212,105.212,0,0,1,36.447-23.646c10.863-4.182,20.234-5.868,24.373-6.149,1.979-.135,5.087-.164,5.59-.168,5.458-.046,8.221-.052,9.894.727,2.461,1.145,5.887,4.059,5.87,8.217a8.329,8.329,0,0,1-3.689,6.764c-3.841,2.552-9.82,1.571-12.187-2.292a8.574,8.574,0,0,1-.112-8.1A8.283,8.283,0,0,1,423.888,884.025Z"/>
      <path id="Path_16" data-name="Path 16" d="M395.453,811.093V982.317a25,25,0,0,1-1.376,8.382c-.822,2.312-2.067,4.7-3.878,5.761h27.615s-4.04-2.758-5.144-10.048a23.236,23.236,0,0,1-.223-3.478V811.093s.559-8.05,5.367-11.515l-27.988-.149S394.485,802.373,395.453,811.093Z"/>
      <rect id="Rectangle_1" data-name="Rectangle 1" width="113.702" height="3.578" transform="translate(410.099 894.944)"/>
      <path id="Path_17" data-name="Path 17" d="M513.851,799.429S520,802.149,520,810.646V981.784a25.9,25.9,0,0,1-1.258,8.185c-.808,2.425-2.1,5.032-4.108,6.491h27.614a16.559,16.559,0,0,1-5.339-9.21,20.081,20.081,0,0,1-.474-4.568V812.9a22.168,22.168,0,0,1,1.424-8.037c.888-2.288,2.276-4.6,4.389-5.436Z"/>
      <path id="Path_18" data-name="Path 18" d="M553.2,799.429a14.444,14.444,0,0,1,5.366,10.882V983.146a20.243,20.243,0,0,1-2.118,9.207,11.337,11.337,0,0,1-3.248,4.107h28.062s-2.172-1.122-3.854-6.138a23.948,23.948,0,0,1-1.177-7.62v-42.18l41.664-49.938,53.74,97.118s2.31,4.621,1.416,8.758h27.279a40.082,40.082,0,0,1-4.723-3.531,53.975,53.975,0,0,1-12.123-14.889L649.72,917.491,627.584,879.18l46.988-57.166a88,88,0,0,1,18.8-17.222,36.139,36.139,0,0,1,9.041-4.767l-23.385.112.76,3.43c-.033,2.8-.2,5.514-1.627,8.159a17.41,17.41,0,0,1-2.7,4.077L632.28,867.627S576.3,935.6,576.3,935.379V812.238a18.06,18.06,0,0,1,1.926-8.348,11.486,11.486,0,0,1,3.813-4.461Z"/>
    </g>
  </g>
</svg>
